# xmcd CD database file
#
# Track frame offsets:
#	150
#	18113
#	38418
#	57436
#	76696
#	95365
#
# Disc length: 1539 seconds
#
# Revision: 1
# Processed by: cddbd v1.5.2PL0 Copyright (c) Steve Scherf et al.
# Submitted via: CDex 1.70beta2
#
DISCID=33060106
DTITLE=天地雅楽 - 天涯比隣
DYEAR=2007
DGENRE=New Age
TTITLE0=天地乃響
TTITLE1=朝霧
TTITLE2=冬の桜
TTITLE3=琉球乃風
TTITLE4=春雪
TTITLE5=Continet of spring
EXTD=YEAR: 2007
EXTT0=
EXTT1=
EXTT2=
EXTT3=
EXTT4=
EXTT5=
PLAYORDER=
